# xmcd
#
# Track frame offsets: 
#        150
#        17535
#        34467
#        53252
#        70472
#        83912
#        96710
#        112587
#        129935
#        150397
#        166202
#        179025
#
# Disc length: 2582 seconds
#
# Revision: 0
# Processed by: cddbd v1.5.1PL2 Copyright (c) Steve Scherf et al.
# Submitted via: ExactAudioCopy v0.95b3
#
DISCID=920a140c
DTITLE=Manolo Escobar - Tiempo Al Tiempo
DYEAR=1900
DGENRE=Vocal
TTITLE0=Solo Te Pido
TTITLE1=Caballo Viejo
TTITLE2=Dame Tu Canasto
TTITLE3=Pajaro Ciego
TTITLE4=Ay, Mi Nina
TTITLE5=La Saeta
TTITLE6=Andaluces De Jaen
TTITLE7=Llave Y Cerrojo
TTITLE8=Amigo
TTITLE9=No Me Mires
TTITLE10=La Pobre Luna
TTITLE11=Adios
EXTD=
EXTT0=
EXTT1=
EXTT2=
EXTT3=
EXTT4=
EXTT5=
EXTT6=
EXTT7=
EXTT8=
EXTT9=
EXTT10=
EXTT11=
PLAYORDER=
